<svg width="150" height="150" viewBox="0 0 150 150" fill="none" xmlns="http://www.w3.org/2000/svg">
<rect width="150" height="150" rx="19" fill="url(#paint0_linear_15446_714)"/>
<g filter="url(#filter0_d_15446_714)">
<path fill-rule="evenodd" clip-rule="evenodd" d="M40.4835 111.929C39.5895 111.929 38.7321 111.575 38.0999 110.945C37.4678 110.316 37.1126 109.462 37.1126 108.571V41.4286C37.1126 40.5382 37.4678 39.6843 38.0999 39.0547C38.7321 38.4251 39.5895 38.0714 40.4835 38.0714H102.845C104.186 38.0714 105.472 37.5409 106.42 36.5965C107.368 35.6521 107.901 34.3713 107.901 33.0357C107.901 31.7002 107.368 30.4193 106.42 29.4749C105.472 28.5305 104.186 28 102.845 28H40.4835C36.9074 28 33.4779 29.4148 30.9492 31.9331C28.4206 34.4515 27 37.8671 27 41.4286V108.571C27 112.133 28.4206 115.549 30.9492 118.067C33.4779 120.585 36.9074 122 40.4835 122H107.901C111.477 122 114.907 120.585 117.435 118.067C119.964 115.549 121.384 112.133 121.384 108.571V86.75C121.384 85.4144 120.852 84.1336 119.903 83.1892C118.955 82.2448 117.669 81.7143 116.328 81.7143C114.987 81.7143 113.701 82.2448 112.753 83.1892C111.804 84.1336 111.272 85.4144 111.272 86.75V108.571C111.272 109.462 110.917 110.316 110.284 110.945C109.652 111.575 108.795 111.929 107.901 111.929H40.4835ZM126.643 52.7086C127.536 51.754 128.022 50.4914 127.999 49.1868C127.976 47.8822 127.445 46.6375 126.519 45.7148C125.593 44.7922 124.343 44.2637 123.033 44.2407C121.723 44.2177 120.455 44.7019 119.497 45.5914L82.0261 82.9027L69.3988 69.9039C68.9381 69.4244 68.3868 69.0404 67.7766 68.7739C67.1664 68.5074 66.5093 68.3636 65.843 68.3508C65.1768 68.3381 64.5147 68.4566 63.8946 68.6995C63.2746 68.9425 62.7088 69.3051 62.23 69.7666C61.7511 70.228 61.3685 70.7791 61.1042 71.3883C60.84 71.9975 60.6992 72.6527 60.69 73.3163C60.6808 73.9798 60.8034 74.6386 61.0508 75.2548C61.2981 75.871 61.6653 76.4325 62.1312 76.9069L78.3316 93.5851C78.7978 94.0666 79.3555 94.4508 79.9724 94.7152C80.5892 94.9797 81.2528 95.1191 81.9243 95.1254C82.5959 95.1316 83.2619 95.0046 83.8836 94.7517C84.5053 94.4987 85.0702 94.125 85.5453 93.6523L126.643 52.7086Z" fill="url(#paint1_linear_15446_714)"/>
</g>
<defs>
<filter id="filter0_d_15446_714" x="23" y="28" width="109" height="102" filterUnits="userSpaceOnUse" color-interpolation-filters="sRGB">
<feFlood flood-opacity="0" result="BackgroundImageFix"/>
<feColorMatrix in="SourceAlpha" type="matrix" values="0 0 0 0 0 0 0 0 0 0 0 0 0 0 0 0 0 0 127 0" result="hardAlpha"/>
<feOffset dy="4"/>
<feGaussianBlur stdDeviation="2"/>
<feComposite in2="hardAlpha" operator="out"/>
<feColorMatrix type="matrix" values="0 0 0 0 0 0 0 0 0 0 0 0 0 0 0 0 0 0 0.12 0"/>
<feBlend mode="normal" in2="BackgroundImageFix" result="effect1_dropShadow_15446_714"/>
<feBlend mode="normal" in="SourceGraphic" in2="effect1_dropShadow_15446_714" result="shape"/>
</filter>
<linearGradient id="paint0_linear_15446_714" x1="9" y1="5.5" x2="150" y2="150" gradientUnits="userSpaceOnUse">
<stop stop-color="#395BA2"/>
<stop offset="1" stop-color="#192D58"/>
</linearGradient>
<linearGradient id="paint1_linear_15446_714" x1="27" y1="28" x2="118.5" y2="120.5" gradientUnits="userSpaceOnUse">
<stop stop-color="#7BA4FD"/>
<stop offset="1" stop-color="#4B84FF"/>
</linearGradient>
</defs>
</svg>
